<svg width="40" height="31" viewBox="0 0 40 31" fill="none" xmlns="http://www.w3.org/2000/svg">
<path d="M34.5805 19.5726C34.3876 18.2994 33.3527 17.3067 32.0205 17.0108C26.8422 15.8578 25.5441 13.0249 25.325 9.88272C24.4067 9.72046 22.773 9.54484 20 9.54484C17.227 9.54484 15.5933 9.72046 14.675 9.88272C14.456 13.0249 13.1579 15.8578 7.97955 17.0108C6.64729 17.3086 5.61243 18.2994 5.41952 19.5726L4.42083 26.1433C4.06918 28.457 5.85758 30.5435 8.34527 30.5435H31.6548C34.1404 30.5435 35.9309 28.457 35.5792 26.1433L34.5805 19.5726ZM20 25.7558C17.1968 25.7558 14.9242 23.6177 14.9242 20.9834C14.9242 18.349 17.1968 16.211 20 16.211C22.8032 16.211 25.0759 18.349 25.0759 20.9834C25.0759 23.6177 22.8012 25.7558 20 25.7558ZM39.9939 7.63587C39.9457 4.77242 32.2737 0.00190897 20 0C7.72435 0.00190897 0.0523089 4.77242 0.00609179 7.63587C-0.0401253 10.4993 0.0482901 14.2256 5.10002 13.6052C11.0098 12.8779 10.6461 10.9174 10.6461 8.11502C10.6461 6.16024 15.4527 5.68872 20 5.68872C24.5474 5.68872 29.3519 6.16024 29.354 8.11502C29.354 10.9174 28.9902 12.8779 34.9 13.6052C39.9497 14.2256 40.0402 10.4993 39.9939 7.63587Z" fill="#F42F2F"/>
</svg>
