<svg width="41" height="40" viewBox="0 0 41 40" fill="none" xmlns="http://www.w3.org/2000/svg">
<path d="M40.1775 20.4444C40.1775 18.8 40.0441 17.6 39.7553 16.3556H20.9775V23.7777H31.9997C31.7775 25.6222 30.5775 28.4 27.9108 30.2666L27.8734 30.5151L33.8106 35.1145L34.222 35.1556C37.9997 31.6667 40.1775 26.5333 40.1775 20.4444Z" fill="#4285F4"/>
<path d="M20.9776 40.0001C26.3775 40.0001 30.9108 38.2223 34.222 35.1557L27.9108 30.2667C26.222 31.4445 23.9553 32.2667 20.9776 32.2667C15.6887 32.2667 11.1998 28.7779 9.5997 23.9557L9.36515 23.9756L3.19158 28.7534L3.11084 28.9778C6.39969 35.5111 13.1553 40.0001 20.9776 40.0001Z" fill="#34A853"/>
<path d="M9.59968 23.9555C9.17746 22.7111 8.93311 21.3777 8.93311 19.9999C8.93311 18.6221 9.17746 17.2888 9.57746 16.0444L9.56628 15.7793L3.31534 10.9248L3.11082 11.0221C1.75533 13.7332 0.977539 16.7777 0.977539 19.9999C0.977539 23.2222 1.75533 26.2665 3.11082 28.9777L9.59968 23.9555Z" fill="#FBBC05"/>
<path d="M20.9776 7.73328C24.7331 7.73328 27.2663 9.3555 28.7108 10.7111L34.3553 5.2C30.8887 1.97779 26.3775 0 20.9776 0C13.1553 0 6.39969 4.48886 3.11084 11.0221L9.57748 16.0444C11.1998 11.2222 15.6887 7.73328 20.9776 7.73328Z" fill="#EB4335"/>
</svg>
