<svg width="41" height="40" viewBox="0 0 41 40" fill="none" xmlns="http://www.w3.org/2000/svg">
<path d="M14.3125 20C14.3125 16.3182 17.2964 13.3328 20.9783 13.3328C24.6602 13.3328 27.6458 16.3182 27.6458 20C27.6458 23.6818 24.6602 26.6672 20.9783 26.6672C17.2964 26.6672 14.3125 23.6818 14.3125 20ZM10.7082 20C10.7082 25.672 15.3061 30.2698 20.9783 30.2698C26.6506 30.2698 31.2485 25.672 31.2485 20C31.2485 14.328 26.6506 9.73024 20.9783 9.73024C15.3061 9.73024 10.7082 14.328 10.7082 20ZM29.255 9.32304C29.2545 10.6485 30.3286 11.7235 31.6541 11.724C32.9797 11.7245 34.0547 10.6504 34.0552 9.32496C34.0557 7.99948 32.9816 6.92453 31.656 6.924H31.6551C30.3302 6.92462 29.2561 7.99819 29.255 9.32304ZM12.898 36.2795C10.948 36.1907 9.88814 35.8659 9.18379 35.5915C8.24999 35.228 7.58372 34.795 6.88322 34.0955C6.18271 33.396 5.74909 32.7304 5.38716 31.7966C5.11258 31.0926 4.78777 30.0325 4.69913 28.0826C4.60216 25.9744 4.5828 25.3411 4.5828 20.0002C4.5828 14.6592 4.60376 14.0277 4.69913 11.9178C4.78793 9.96784 5.11514 8.90976 5.38716 8.20368C5.75069 7.26992 6.18367 6.60368 6.88322 5.9032C7.58276 5.20272 8.24839 4.76912 9.18379 4.4072C9.88782 4.13264 10.948 3.80784 12.898 3.7192C15.0063 3.62224 15.6396 3.60288 20.9783 3.60288C26.3171 3.60288 26.9511 3.62384 29.0611 3.7192C31.0111 3.808 32.0692 4.1352 32.7753 4.4072C33.7091 4.76912 34.3754 5.20368 35.0759 5.9032C35.7764 6.60272 36.2084 7.26992 36.5719 8.20368C36.8465 8.90768 37.1713 9.96784 37.2599 11.9178C37.3569 14.0277 37.3763 14.6592 37.3763 20.0002C37.3763 25.3411 37.3569 25.9726 37.2599 28.0826C37.1711 30.0325 36.8447 31.0923 36.5719 31.7966C36.2084 32.7304 35.7754 33.3966 35.0759 34.0955C34.3763 34.7944 33.7091 35.228 32.7753 35.5915C32.0713 35.8661 31.0111 36.1909 29.0611 36.2795C26.9528 36.3765 26.3195 36.3958 20.9783 36.3958C15.6372 36.3958 15.0056 36.3765 12.898 36.2795ZM12.7324 0.12112C10.6032 0.21808 9.14827 0.55568 7.87766 1.05008C6.56176 1.56064 5.4478 2.2456 4.33463 3.35696C3.22147 4.46832 2.53824 5.584 2.02766 6.89984C1.53324 8.1712 1.19563 9.62528 1.09866 11.7544C1.0001 13.8869 0.977539 14.5686 0.977539 20C0.977539 25.4314 1.0001 26.1131 1.09866 28.2456C1.19563 30.3749 1.53324 31.8288 2.02766 33.1002C2.53824 34.4152 3.22163 35.5322 4.33463 36.643C5.44764 37.7539 6.56176 38.4379 7.87766 38.9499C9.15067 39.4443 10.6032 39.7819 12.7324 39.8789C14.8661 39.9758 15.5468 40 20.9783 40C26.4099 40 27.0917 39.9774 29.2243 39.8789C31.3536 39.7819 32.8076 39.4443 34.079 38.9499C35.3941 38.4379 36.5089 37.7544 37.622 36.643C38.7352 35.5317 39.417 34.4152 39.929 33.1002C40.4234 31.8288 40.7626 30.3747 40.858 28.2456C40.955 26.1115 40.9775 25.4314 40.9775 20C40.9775 14.5686 40.955 13.8869 40.858 11.7544C40.7611 9.62512 40.4234 8.1704 39.929 6.89984C39.417 5.5848 38.7335 4.47008 37.622 3.35696C36.5106 2.24384 35.3941 1.56064 34.0806 1.05008C32.8076 0.55568 31.3535 0.21648 29.2259 0.12112C27.0933 0.02416 26.4115 0 20.9799 0C15.5484 0 14.8661 0.02256 12.7324 0.12112Z" fill="url(#paint0_radial_477_47)"/>
<defs>
<radialGradient id="paint0_radial_477_47" cx="0" cy="0" r="1" gradientUnits="userSpaceOnUse" gradientTransform="translate(6.29199 40.189) scale(52.2187)">
<stop offset="0.09" stop-color="#FA8F21"/>
<stop offset="0.78" stop-color="#D82D7E"/>
</radialGradient>
</defs>
</svg>
