<svg width="41" height="40" viewBox="0 0 41 40" fill="none" xmlns="http://www.w3.org/2000/svg">
<path d="M10.7179 34.2849C11.1294 34.1582 11.5757 34.2169 11.9406 34.4457C14.6276 36.1305 17.7338 37.037 20.9775 37.037C30.3868 37.037 38.0146 29.4093 38.0146 20C38.0146 10.5907 30.3868 2.96296 20.9775 2.96296C11.5682 2.96296 3.9405 10.5907 3.9405 20C3.9405 23.339 4.90129 26.5318 6.68042 29.2697C6.91429 29.6296 6.98057 30.0733 6.8621 30.4858C6.63578 31.2739 6.32438 32.3841 5.94969 33.7353C5.93354 33.7936 5.93354 33.7936 5.91739 33.8518C5.73138 34.523 5.53747 35.2256 5.34119 35.9392L10.7179 34.2849ZM3.63544 39.5641C2.51939 39.9075 1.46326 38.8849 1.77047 37.7584C1.79057 37.6847 1.79057 37.6847 1.88083 37.3543C1.9686 37.0332 2.06653 36.6754 2.17217 36.2901C2.47402 35.1892 2.77719 34.0883 3.06206 33.0605C3.07826 33.002 3.07826 33.002 3.09447 32.9436C3.38001 31.9139 3.62915 31.0228 3.83288 30.304C1.97633 27.2216 0.977539 23.6832 0.977539 20C0.977539 8.9543 9.93184 0 20.9775 0C32.0232 0 40.9775 8.9543 40.9775 20C40.9775 31.0457 32.0232 40 20.9775 40C17.4076 40 13.9729 39.0618 10.956 37.3116L3.63544 39.5641ZM24.251 23.6438C24.4479 23.4469 24.6618 23.2092 24.8857 22.9405C25.1655 22.6048 25.4448 22.2405 25.7082 21.8757C25.8659 21.6574 25.9814 21.4901 26.0412 21.4004C26.0953 21.3193 26.1573 21.2436 26.2263 21.1747C26.3536 21.0473 26.5212 20.9216 26.7348 20.8148C27.3987 20.4828 28.2189 20.4828 29.0475 20.8971C29.3225 21.0346 32.5113 23.108 33.9192 23.8901C34.467 24.1945 34.7641 24.8106 34.6611 25.4287C34.3265 27.4361 33.7454 28.9569 32.4418 30.2605C30.6368 32.0655 27.8747 32.7734 24.0911 32.2058C17.0876 31.1553 11.0638 25.0178 8.48369 18.3096C7.36143 15.3917 7.91112 12.5211 9.46585 9.92992C10.0421 8.96952 10.6235 8.25888 11.0411 7.84132C11.2479 7.63451 11.5113 7.49354 11.7981 7.43618C11.926 7.4106 12.1269 7.37514 12.373 7.33999C12.6313 7.30308 12.8867 7.27471 13.1332 7.25827C14.1414 7.19106 14.779 7.26192 15.3584 7.84132C16.0906 8.5735 18.3849 12.9857 18.3849 14.0741C18.3849 15.2175 17.8834 16.1877 16.6367 17.5287C16.9899 18.4786 18.2257 19.9264 20.0203 21.402C20.9515 22.1677 21.9658 22.8885 22.8524 23.4273C23.248 23.6678 23.5972 23.8588 23.864 23.9828C23.9811 23.9011 24.1094 23.7854 24.251 23.6438ZM12.0066 11.4544C10.8788 13.334 10.5018 15.3028 11.2492 17.246C13.4821 23.0517 18.738 28.4068 24.5306 29.2756C27.4467 29.7131 29.265 29.2471 30.3466 28.1654C30.9248 27.5872 31.2858 26.871 31.5321 25.9289C30.2593 25.1661 28.6716 24.1488 28.0203 23.7342C27.7461 24.1093 27.4573 24.4828 27.1619 24.8373C26.8844 25.1704 26.6121 25.4729 26.3461 25.7389C25.52 26.565 24.812 27.037 23.9405 27.037C22.8513 27.037 20.3858 25.5384 18.1385 23.6906C15.3309 21.3822 13.5701 19.13 13.5701 17.037C13.5701 16.6441 13.7262 16.2673 14.004 15.9895C15.1399 14.8536 15.422 14.3835 15.422 14.0741C15.3586 13.9936 15.2869 13.8126 15.1921 13.5948C15.0042 13.1632 14.7376 12.6144 14.4317 12.0261C14.1487 11.482 13.8476 10.9341 13.5931 10.4987C13.5313 10.3928 13.4735 10.2958 13.4208 10.2095C13.3919 10.2109 13.3617 10.2126 13.3303 10.2147C13.181 10.2246 13.0164 10.2423 12.8458 10.2656C12.5391 10.6403 12.2635 11.0262 12.0066 11.4544Z" fill="#80D25B"/>
</svg>
